<?xml version="1.0" encoding="utf-8"?>
<svg version="1.0" xmlns="http://www.w3.org/2000/svg" width="358.000000pt" height="341.000000pt" viewBox="0 0 358.000000 341.000000" preserveAspectRatio="xMidYMid meet">
  <g transform="matrix(0.11484, 0, 0, -0.11484, -33.060651, 372.559642)" style="" fill="#000000" stroke="none">
    <path d="M1725 3160 c-204 -32 -417 -149 -539 -298 -39 -48 -41 -54 -26 -83 20 -37 57 -23 123 47 218 234 548 309 848 193 106 -41 191 -98 279 -188 159 -162 229 -351 217 -581 -7 -136 -25 -201 -92 -333 -65 -127 -73 -165 -51 -239 36 -126 193 -210 333 -178 69 15 105 32 158 75 58 47 78 55 132 55 61 0 106 -27 133 -79 54 -107 -10 -203 -198 -298 -116 -58 -243 -81 -356 -64 -145 23 -244 67 -352 158 -54 45 -83 53 -104 28 -39 -47 77 -356 189 -503 25 -34 66 -88 91 -121 49 -65 74 -75 105 -41 17 19 17 23 3 53 -9 17 -39 59 -68 92 -66 77 -134 186 -172 276 -16 39 -28 72 -26 74 2 2 39 -14 83 -36 72 -36 81 -44 95 -82 20 -56 94 -129 146 -145 128 -38 232 6 309 132 9 15 14 14 54 -5 90 -46 192 -33 268 34 71 63 100 172 68 257 -10 25 -21 79 -24 120 -8 82 -33 140 -78 181 -92 86 -234 87 -335 3 -61 -52 -114 -74 -178 -74 -67 0 -126 26 -164 71 -25 29 -28 39 -24 89 3 38 13 69 32 98 131 207 156 520 60 764 -57 146 -179 301 -311 394 -79 57 -193 110 -291 135 -90 23 -252 32 -337 19z m1575 -1867 c0 -105 -102 -184 -197 -152 l-35 11 64 38 c35 21 84 57 108 79 50 45 60 49 60 24z m-450 -234 c-60 -50 -139 -48 -190 6 l-23 24 113 0 c61 0 114 2 118 5 3 3 8 3 11 0 3 -3 -10 -19 -29 -35z" style="stroke: rgb(0, 0, 0); stroke-width: 34.8311px;"/>
    <path d="M1053 2648 c-15 -20 -41 -96 -59 -173 -21 -92 -21 -277 0 -369 21 -88 60 -187 102 -257 63 -105 40 -195 -61 -240 -52 -24 -138 -24 -190 0 -22 10 -60 34 -83 55 -169 141 -411 31 -412 -187 0 -32 -7 -71 -15 -87 -42 -80 -26 -193 36 -263 75 -86 189 -109 290 -59 40 20 45 21 54 6 77 -126 181 -170 309 -132 52 16 126 89 146 145 14 38 23 46 95 82 44 22 81 38 83 36 7 -7 -61 -154 -103 -220 -24 -38 -67 -97 -95 -130 -69 -80 -90 -126 -90 -200 0 -141 104 -245 245 -245 59 0 135 25 149 49 4 6 35 11 69 11 34 0 78 5 98 10 50 14 123 81 144 132 24 58 23 142 -1 197 l-20 44 43 106 c24 58 46 121 49 139 3 17 10 32 14 32 4 0 11 -15 14 -32 3 -18 25 -81 49 -139 l43 -106 -20 -44 c-41 -94 -16 -212 59 -278 54 -47 94 -61 174 -61 40 0 73 -5 77 -11 14 -24 90 -49 149 -49 70 0 126 23 173 69 33 34 41 68 20 89 -18 18 -55 14 -70 -7 -37 -53 -130 -76 -186 -47 -88 46 -263 298 -332 478 -31 79 -80 241 -80 263 0 21 -39 48 -71 48 -44 0 -64 -27 -89 -123 -59 -229 -178 -451 -324 -604 -47 -50 -70 -66 -99 -72 -114 -20 -215 91 -177 195 7 19 35 62 61 94 106 127 171 240 219 385 36 110 47 177 30 197 -23 27 -57 17 -117 -36 -68 -59 -193 -122 -277 -139 -80 -16 -219 -14 -291 5 -91 23 -197 80 -261 138 -85 78 -102 132 -64 208 48 93 172 108 255 29 71 -67 188 -102 281 -82 112 23 177 72 215 160 33 77 22 148 -39 248 -107 173 -130 440 -57 649 17 50 21 74 14 87 -11 21 -62 25 -76 6z m-595 -1379 c26 -22 75 -58 110 -79 l64 -38 -35 -11 c-95 -32 -197 47 -197 152 0 24 6 22 58 -24z m582 -204 c-51 -54 -131 -56 -190 -6 l-35 29 124 1 123 0 -22 -24z m633 -428 c-20 -34 -76 -77 -101 -77 -12 0 -12 3 1 23 9 12 38 54 64 93 l48 72 3 -40 c2 -25 -4 -51 -15 -71z m457 -59 c15 -25 -6 -24 -48 2 -45 28 -72 76 -72 129 l0 44 55 -79 c30 -43 59 -87 65 -96z" style="stroke: rgb(0, 0, 0); stroke-width: 34.8311px;"/>
    <path d="M 1558.33 2537.52 C 1490.26 2515.65 1461.09 2456.61 1461.09 2345.07 C 1461.09 2222.62 1507.28 2159.19 1599.66 2159.19 C 1682.31 2159.19 1706.62 2209.5 1699.33 2356.01 C 1694.47 2465.36 1682.31 2498.16 1643.42 2520.02 C 1616.68 2535.33 1577.77 2541.89 1558.33 2537.52 Z" style="stroke: rgb(0, 0, 0); stroke-width: 113.201px; fill-opacity: 0;"/>
    <path d="M 2095.94 2512.06 C 2079.18 2496.44 2067.21 2425 2067.21 2349.08 C 2067.21 2203.96 2093.55 2159.31 2177.38 2159.31 C 2285.14 2159.31 2342.63 2335.69 2282.76 2480.81 C 2265.99 2525.46 2242.05 2538.85 2191.74 2538.85 C 2155.84 2538.85 2112.71 2527.69 2095.94 2512.06 Z" style="stroke: rgb(0, 0, 0); fill-opacity: 0; stroke-width: 113.201px;"/>
    <path style="fill: rgb(216, 216, 216); stroke: rgb(0, 0, 0); stroke-linecap: round; fill-opacity: 0; stroke-width: 95.7854px;" d="M 1702.26 1940.05 C 1707.41 1853.27 2021.08 1848.6 2025.42 1940.05"/>
  </g>
</svg>