<?xml version="1.0" encoding="utf-8"?>
<svg version="1.0" xmlns="http://www.w3.org/2000/svg" width="358.000000pt" height="341.000000pt" viewBox="0 0 358.000000 341.000000" preserveAspectRatio="xMidYMid meet">
  <g transform="matrix(0.11484, 0, 0, -0.11484, -33.060651, 372.559642)" style="" fill="#000000" stroke="none">
    <path d="M 1726.01 3160.11 C 1525.74 3128.69 1316.63 3013.83 1196.86 2867.55 C 1158.57 2820.43 1156.61 2814.54 1171.33 2786.07 C 1190.97 2749.75 1227.29 2763.49 1292.09 2832.21 C 1506.1 3061.94 1830.07 3135.57 2124.59 3021.69 C 2228.65 2981.43 2312.1 2925.48 2398.49 2837.12 C 2554.59 2678.08 2623.31 2492.54 2611.53 2266.74 C 2604.65 2133.22 2586.98 2069.41 2521.21 1939.82 C 2457.4 1815.14 2449.54 1777.84 2471.14 1705.19 C 2506.48 1581.49 2660.61 1499.03 2798.05 1530.44 C 2865.79 1545.17 2901.13 1561.86 2953.17 1604.07 C 3010.11 1650.21 3029.74 1658.07 3082.75 1658.07 C 3142.64 1658.07 3186.82 1631.56 3213.32 1580.51 C 3266.34 1475.47 3203.51 1381.22 3018.94 1287.96 C 2905.06 1231.02 2780.38 1208.44 2669.45 1225.13 C 2527.1 1247.71 2429.91 1290.9 2323.88 1380.24 C 2270.87 1424.42 2242.4 1432.27 2221.78 1407.73 C 2183.49 1361.59 2297.37 1058.23 2407.33 913.921 C 2431.87 880.542 2472.12 827.529 2496.66 795.132 C 2544.77 731.32 2569.31 721.503 2599.75 754.881 C 2616.44 773.534 2616.44 777.461 2602.69 806.913 C 2593.86 823.602 2564.4 864.835 2535.93 897.232 C 2471.14 972.824 2404.38 1079.83 2367.08 1168.19 C 2351.37 1206.47 2339.59 1238.87 2341.55 1240.84 C 2343.51 1242.8 2379.84 1227.09 2423.03 1205.49 C 2493.72 1170.15 2502.55 1162.3 2516.3 1124.99 C 2535.93 1070.02 2608.58 998.349 2659.63 982.642 C 2785.29 945.336 2887.39 988.532 2962.98 1112.23 C 2971.82 1126.95 2976.73 1125.97 3016 1107.32 C 3104.35 1062.16 3204.49 1074.92 3279.1 1140.7 C 3348.8 1202.55 3377.27 1309.56 3345.86 1393 C 3336.04 1417.55 3325.24 1470.56 3322.3 1510.81 C 3314.44 1591.31 3289.9 1648.25 3245.72 1688.5 C 3155.4 1772.93 3016 1773.91 2916.84 1691.45 C 2856.96 1640.4 2804.93 1618.8 2742.1 1618.8 C 2676.32 1618.8 2618.4 1644.33 2581.09 1688.5 C 2556.55 1716.97 2553.6 1726.79 2557.53 1775.88 C 2560.48 1813.18 2570.29 1843.62 2588.95 1872.09 C 2717.55 2075.3 2742.1 2382.58 2647.85 2622.12 C 2591.89 2765.46 2472.12 2917.62 2342.53 3008.92 C 2264.98 3064.88 2153.06 3116.91 2056.85 3141.46 C 1968.5 3164.04 1809.46 3172.87 1726.01 3160.11 Z M 3272.23 1327.23 C 3272.23 1224.15 3172.09 1146.59 3078.83 1178.01 L 3044.47 1188.8 L 3107.3 1226.11 C 3141.66 1246.73 3189.76 1282.07 3213.32 1303.67 C 3262.41 1347.84 3272.23 1351.77 3272.23 1327.23 Z M 2830.45 1097.5 C 2771.55 1048.42 2693.99 1050.38 2643.92 1103.39 L 2621.34 1126.95 L 2732.28 1126.95 C 2792.16 1126.95 2844.19 1128.92 2848.12 1131.86 C 2851.07 1134.81 2855.98 1134.81 2858.92 1131.86 C 2861.87 1128.92 2849.1 1113.21 2830.45 1097.5 Z" style="stroke: rgb(0, 0, 0); stroke-width: 87.0777px;"/>
    <path d="M 1066.29 2657.47 C 1051.56 2637.83 1026.04 2563.22 1008.37 2487.63 C 987.751 2397.31 987.751 2215.69 1008.37 2125.37 C 1028.98 2038.98 1067.27 1941.79 1108.5 1873.07 C 1170.35 1769.99 1147.77 1681.63 1048.62 1637.45 C 997.571 1613.89 913.141 1613.89 862.092 1637.45 C 840.494 1647.27 803.188 1670.83 780.608 1691.45 C 614.697 1829.87 377.119 1721.88 376.137 1507.87 C 376.137 1476.45 369.265 1438.16 361.411 1422.45 C 320.179 1343.92 335.887 1232.98 396.754 1164.26 C 470.383 1079.83 582.3 1057.25 681.454 1106.34 C 720.723 1125.97 725.632 1126.95 734.467 1112.23 C 810.06 988.532 912.16 945.336 1037.82 982.642 C 1088.87 998.349 1161.52 1070.02 1181.15 1124.99 C 1194.9 1162.3 1203.73 1170.15 1274.42 1205.49 C 1317.61 1227.09 1353.94 1242.8 1355.9 1240.84 C 1362.77 1233.96 1296.01 1089.65 1254.78 1024.86 C 1231.22 987.55 1189 929.628 1161.52 897.232 C 1093.78 818.693 1073.16 773.534 1073.16 700.886 C 1073.16 562.463 1175.26 460.364 1313.68 460.364 C 1371.61 460.364 1446.22 484.907 1459.96 508.468 C 1463.89 514.358 1494.32 519.267 1527.7 519.267 C 1561.08 519.267 1604.27 524.176 1623.91 529.084 C 1673 542.828 1744.66 608.604 1765.28 658.672 C 1788.84 715.612 1787.86 798.077 1764.3 852.072 L 1744.66 895.268 L 1786.88 999.331 C 1810.44 1056.27 1832.04 1118.12 1834.98 1135.79 C 1837.93 1152.48 1844.8 1167.21 1848.73 1167.21 C 1852.65 1167.21 1859.52 1152.48 1862.47 1135.79 C 1865.41 1118.12 1887.01 1056.27 1910.57 999.331 L 1952.79 895.268 L 1933.15 852.072 C 1892.9 759.79 1917.45 643.946 1991.07 579.152 C 2044.09 533.011 2083.36 519.267 2161.9 519.267 C 2201.17 519.267 2233.56 514.358 2237.49 508.468 C 2251.23 484.907 2325.84 460.364 2383.77 460.364 C 2452.49 460.364 2507.46 482.943 2553.6 528.103 C 2586 561.481 2593.86 594.86 2573.24 615.476 C 2555.57 633.147 2519.24 629.22 2504.52 608.604 C 2468.19 556.573 2376.89 533.993 2321.92 562.463 C 2235.53 607.622 2063.72 855.017 1995.98 1031.73 C 1965.55 1109.28 1917.45 1268.32 1917.45 1289.92 C 1917.45 1310.54 1879.16 1337.05 1847.74 1337.05 C 1804.55 1337.05 1784.91 1310.54 1760.37 1216.29 C 1702.45 991.477 1585.62 773.534 1442.29 623.33 C 1396.15 574.244 1373.57 558.536 1345.1 552.646 C 1233.18 533.011 1134.03 641.983 1171.33 744.082 C 1178.21 762.735 1205.7 804.949 1231.22 836.365 C 1335.28 961.044 1399.09 1071.98 1446.22 1214.33 C 1481.56 1322.32 1492.36 1388.09 1475.67 1407.73 C 1453.09 1434.24 1419.71 1424.42 1360.81 1372.39 C 1294.05 1314.46 1171.33 1252.62 1088.87 1235.93 C 1010.33 1220.22 873.872 1222.18 803.188 1240.84 C 713.851 1263.41 609.788 1319.37 546.958 1376.31 C 463.511 1452.89 446.822 1505.9 484.127 1580.51 C 531.25 1671.81 652.984 1686.54 734.467 1608.98 C 804.17 1543.21 919.032 1508.85 1010.33 1528.48 C 1120.28 1551.06 1184.1 1599.16 1221.4 1685.56 C 1253.8 1761.15 1243 1830.85 1183.11 1929.03 C 1078.07 2098.86 1055.49 2360.99 1127.16 2566.16 C 1143.85 2615.25 1147.77 2638.81 1140.9 2651.58 C 1130.1 2672.19 1080.03 2676.12 1066.29 2657.47 Z M 482.164 1303.67 C 507.689 1282.07 555.793 1246.73 590.154 1226.11 L 652.984 1188.8 L 618.624 1178.01 C 525.36 1146.59 425.224 1224.15 425.224 1327.23 C 425.224 1350.79 431.114 1348.83 482.164 1303.67 Z M 1053.53 1103.39 C 1003.46 1050.38 924.922 1048.42 867 1097.5 L 832.64 1125.97 L 954.374 1126.95 L 1075.13 1126.95 L 1053.53 1103.39 Z M 1674.96 683.215 C 1655.32 649.837 1600.35 607.622 1575.8 607.622 C 1564.02 607.622 1564.02 610.568 1576.79 630.202 C 1585.62 641.983 1614.09 683.215 1639.62 721.503 L 1686.74 792.187 L 1689.69 752.918 C 1691.65 728.375 1685.76 702.85 1674.96 683.215 Z M 2123.61 625.293 C 2138.33 600.75 2117.72 601.732 2076.48 627.257 C 2032.31 654.745 2005.8 701.868 2005.8 753.9 L 2005.8 797.095 L 2059.8 719.539 C 2089.25 677.325 2117.72 634.129 2123.61 625.293 Z" style="stroke: rgb(0, 0, 0); stroke-width: 87.0777px;"/>
    <path d="M 1553.06 2457.18 C 1490.73 2440.64 1464.02 2395.95 1464.02 2311.55 C 1464.02 2218.88 1506.31 2170.86 1590.89 2170.86 C 1666.58 2170.86 1688.83 2208.95 1682.16 2319.82 C 1677.7 2402.57 1666.58 2427.41 1630.96 2443.95 C 1606.47 2455.53 1570.86 2460.49 1553.06 2457.18 Z" style="stroke: rgb(0, 0, 0); stroke-width: 130.617px;"/>
    <path d="M 2045.32 2437.91 C 2029.96 2426.09 2019.01 2372.03 2019.01 2314.57 C 2019.01 2204.74 2043.12 2170.95 2119.89 2170.95 C 2218.55 2170.95 2271.2 2304.45 2216.37 2414.26 C 2201.01 2448.07 2179.09 2458.2 2133.03 2458.2 C 2100.16 2458.2 2060.67 2449.74 2045.32 2437.91 Z" style="stroke: rgb(0, 0, 0); stroke-width: 130.617px;"/>
  </g>
</svg>