<?xml version="1.0" encoding="utf-8"?>
<svg version="1.0" xmlns="http://www.w3.org/2000/svg" width="358.000000pt" height="341.000000pt" viewBox="0 0 358.000000 341.000000" preserveAspectRatio="xMidYMid meet">
  <path stroke="rgb(255,0,0)" d="M 20.92 219.815 C 23.813 219.536 27.57 220.226 30.097 221.294 C 32.375 222.257 34.229 223.9 35.635 225.585 C 36.997 227.219 37.975 229.43 38.483 231.208 C 38.926 232.761 39.01 234.075 38.799 235.646 C 38.563 237.405 43.782 242.02 42.764 243.713 C 41.734 245.427 34.308 244.693 32.628 245.856 C 30.977 246.999 28.759 247.792 26.932 248.223 C 25.292 248.61 23.962 248.724 22.186 248.52 C 20.042 248.272 16.9 247.452 14.907 246.448 C 13.143 245.559 11.805 244.449 10.635 243.044 C 9.405 241.568 8.315 239.594 7.787 237.717 C 7.261 235.845 7.186 233.658 7.471 231.8 C 7.745 230.017 8.442 228.277 9.37 226.769 C 10.292 225.27 11.329 223.877 13.009 222.774 C 14.994 221.469 18.128 220.082 20.92 219.815 Z M 75.348 234.611 C 78.373 234.169 82.217 234.225 85.158 235.203 C 88.063 236.168 91.128 238.382 92.911 240.381 C 94.482 242.143 95.303 244.353 95.759 246.299 C 96.18 248.098 96.055 249.999 95.759 251.626 C 95.485 253.135 95.043 254.406 94.177 255.77 C 93.191 257.321 91.55 259.189 89.905 260.357 C 88.318 261.482 86.505 262.272 84.525 262.724 C 82.416 263.205 79.81 263.177 77.563 263.02 C 75.385 262.867 73.252 262.684 71.235 261.836 C 69.071 260.927 66.585 259.226 65.064 257.545 C 63.654 255.986 62.74 254.065 62.216 252.218 C 61.704 250.412 61.625 248.389 61.899 246.596 C 62.168 244.841 62.87 243.073 63.798 241.565 C 64.72 240.067 65.757 238.674 67.437 237.57 C 69.422 236.265 72.492 235.028 75.348 234.611 Z M 153.299 280.743 C 155.507 280.694 158.424 281.044 160.577 281.926 C 162.684 282.791 164.671 284.245 166.115 285.921 C 167.589 287.633 168.768 290.052 169.28 292.136 C 169.761 294.098 169.594 296.303 169.28 298.054 C 169 299.61 168.585 300.811 167.697 302.197 C 166.66 303.818 164.87 305.863 163.109 307.08 C 161.423 308.246 159.201 309.019 157.413 309.447 C 155.852 309.821 154.651 309.944 152.983 309.744 C 150.947 309.499 147.901 308.677 146.021 307.672 C 144.358 306.783 143.147 305.576 142.065 304.269 C 140.984 302.962 140.065 301.486 139.534 299.83 C 138.966 298.059 138.72 295.777 138.901 293.911 C 139.074 292.137 139.669 290.432 140.483 288.88 C 141.301 287.323 142.527 285.765 143.806 284.59 C 145.022 283.471 146.376 282.565 147.92 281.926 C 149.526 281.262 151.333 280.786 153.299 280.743 Z M 202.243 281.828 C 204.619 281.493 206.91 281.567 209.204 282.419 C 211.822 283.392 215.115 285.811 216.957 287.895 C 218.606 289.758 219.616 292.058 220.122 294.109 C 220.589 296.001 220.459 297.974 220.122 299.731 C 219.799 301.416 219.175 303.028 218.223 304.467 C 217.243 305.947 215.899 307.373 214.268 308.462 C 212.518 309.629 209.983 310.703 207.939 311.125 C 206.092 311.505 204.358 311.444 202.559 311.125 C 200.666 310.788 198.603 310.08 196.863 309.053 C 195.057 307.987 193.257 306.387 191.958 304.762 C 190.687 303.172 189.634 301.282 189.11 299.436 C 188.598 297.63 188.519 295.606 188.794 293.813 C 189.063 292.058 189.765 290.291 190.692 288.782 C 191.614 287.284 192.652 285.891 194.332 284.787 C 196.317 283.483 199.671 282.19 202.243 281.828 Z M 285.151 237.576 C 287.718 237.193 290.967 237.645 293.426 238.509 C 295.993 239.41 298.505 238.074 300.182 239.987 C 301.706 241.725 302.547 243.78 303.03 245.906 C 303.531 248.109 303.785 250.597 303.03 253.007 C 302.169 255.761 298.92 255.157 296.765 257.016 C 294.974 258.561 292.691 257.84 290.752 258.318 C 289.012 258.747 287.112 260.857 285.325 260.657 C 283.338 260.434 282.621 259.112 280.816 258.2 C 279.125 257.347 277.784 258.308 276.544 256.84 C 275.152 255.19 272.969 255.221 272.335 253.007 C 271.698 250.784 271.32 248.318 272.019 245.906 C 272.817 243.153 275.21 239.379 277.557 237.472 C 279.679 235.746 282.547 237.964 285.151 237.576 Z M 335.458 222.109 C 337.659 222.077 339.274 220.634 341.549 221.591 C 343.727 222.506 348.125 219.168 349.53 220.854 C 350.893 222.487 349.427 229.727 349.934 231.503 C 350.378 233.058 350.462 234.371 350.251 235.943 C 350.015 237.702 349.369 239.872 348.352 241.566 C 347.322 243.28 343.521 243.867 341.896 245.131 C 340.298 246.374 337.423 244.384 335.425 245.027 C 333.33 245.7 333.949 250.121 331.739 249.999 C 329.634 249.884 327.437 249.291 325.726 248.52 C 324.163 247.814 322.954 246.947 321.771 245.708 C 320.439 244.314 318.978 242.333 318.29 240.382 C 317.589 238.394 317.16 236.16 317.657 233.871 C 318.234 231.218 323.114 229.948 325.158 227.82 C 327.041 225.859 331.867 224.155 333.939 223.337 C 335.57 222.692 333.705 222.134 335.458 222.109 Z" style="stroke: rgb(129, 151, 57); stroke-width: 0px; fill: rgb(91, 98, 205);"/>
  <g transform="matrix(0.11484, 0, 0, -0.11484, -33.060651, 372.559642)" style="" fill="#000000" stroke="none">
    <path stroke="rgb(255,0,0)" d="M 1922.63 3129.77 C 1965.24 3133.73 2060.01 3121.32 2111.49 3098.29 C 2157.3 3077.79 2192.06 3036.42 2221.66 3007.01 C 2246.68 2982.16 2266.986 2985.334 2285.726 2968.654 C 2300.066 2955.894 2332.097 2949.759 2343.667 2939.219 C 2355.157 2928.749 2394.976 2913.694 2401.786 2905.694 C 2405.886 2900.874 2362.101 2916.196 2368.671 2913.276 C 2382.941 2906.946 2424.72 2857.54 2451.44 2846.47 C 2476.81 2835.98 2495.93 2830.09 2517.54 2799.26 C 2554.43 2746.65 2604.16 2597.83 2624.57 2509.67 C 2642.02 2434.3 2645.31 2377.73 2643.46 2301.92 C 2641.35 2215.93 2623.91 2084.69 2605.68 2018.62 C 2593.51 1974.49 2566.59 1951.5 2561.61 1924.19 C 2557.71 1902.73 2574.91 1889.91 2567.91 1867.53 C 2558.54 1837.57 2540.12 1794.11 2493.01 1756.72 C 2520.74 1698.98 2524.828 1646.687 2566.628 1624.407 C 2601.178 1605.987 2655.19 1558.24 2709.56 1570.6 C 2784.58 1587.64 2946.2 1589.75 3005.44 1608.37 C 3039.26 1619 3043.39 1639.45 3068.4 1646.14 C 3096.78 1653.74 3138.96 1655.37 3169.13 1646.14 C 3198.61 1637.13 3229.4 1624.51 3247.82 1592.63 C 3273.39 1548.36 3289.3 1429.64 3279.3 1378.58 C 3272.09 1341.83 3253.18 1317.32 3225.78 1299.89 C 3194.32 1279.88 3141.79 1289.8 3093.58 1274.71 C 3036.44 1256.83 2979.8 1208.52 2904.72 1192.87 C 2815.01 1174.17 2678.47 1160.75 2583.65 1186.58 C 2494.07 1210.97 2379.67 1304.17 2347.57 1334.51 C 2333.99 1347.35 2349.446 1302.388 2336.086 1307.528 C 2327.386 1310.868 2306.12 1364.37 2285.69 1360.72 C 2285.73 1355.07 2285.41 1349.79 2284.62 1345.01 C 2280.22 1318.63 2252.74 1307.63 2253.14 1282.06 C 2253.66 1248.87 2297.21 1176.69 2309.79 1159.3 C 2315.12 1151.94 2315.36 1158.37 2322.39 1149.85 C 2345.15 1122.26 2444.58 969.52 2479.78 898.038 C 2506.58 843.588 2508.24 787.083 2530.14 756.388 C 2546.25 733.792 2573.26 734.628 2586.8 715.471 C 2601.48 694.685 2615.37 662.867 2611.98 633.626 C 2608.03 599.57 2589.23 546.122 2552.17 523.456 C 2505.67 495.016 2382.56 493.544 2331.83 504.568 C 2296.98 512.144 2278.99 534.889 2259.44 551.782 C 2242.26 566.629 2235.69 582.216 2218.51 599.004 C 2197.55 619.485 2163.15 632.668 2139.82 665.105 C 2109.87 706.728 2097.56 779.856 2064.28 841.376 C 2026.47 911.256 1952 979.551 1919.48 1061.72 C 1897.59 1117.02 1876.15 1177.27 1868.2 1240.53 C 1841.76 1212.82 1826.27 1142.98 1811.4 1125.72 C 1802.23 1115.04 1799.47 1123.68 1789.37 1109.98 C 1761.74 1072.51 1703.05 898.682 1644.58 807.799 C 1588.02 719.894 1474.68 598.308 1446.27 571.723 C 1437.08 563.119 1436.96 567.891 1430.54 562.275 C 1420.04 553.114 1410.95 526.077 1389.62 515.061 C 1361.25 500.415 1299.82 487.945 1263.7 496.174 C 1230.4 503.767 1197.2 526.66 1178.71 555.979 C 1158.22 588.503 1145.89 650.772 1153.53 688.189 C 1157.36 706.911 1167.88 724.84 1180.65 740.532 C 1210.24 871.235 1369.33 1176.83 1384.71 1298.86 C 1299.38 1257.24 1181.83 1213.89 1095.83 1194.97 C 985.795 1170.76 871.784 1161.07 774.762 1182.38 C 682.912 1202.55 579.56 1267.47 526.085 1311.44 C 488.363 1342.45 470.565 1369.86 456.841 1405.87 C 442.682 1443.01 435.725 1493.94 444.25 1531.77 C 452.444 1568.12 473.882 1607.81 504.055 1629.35 C 536.378 1652.43 594.25 1666.12 636.256 1660.83 C 678.175 1655.56 700.929 1613.24 755.875 1597.88 C 834.288 1575.95 1011.55 1553.31 1083.23 1566.4 C 1128.78 1574.72 1145.07 1590.59 1174.52 1619.91 C 1192.97 1638.29 1212.2 1672.55 1230.54 1706.28 C 1227.22 1709.64 1223.93 1713.03 1220.69 1716.45 C 1155.04 1785.53 1080.15 1886.61 1050.71 1974.55 C 1023.85 2054.8 1027.58 2131.21 1038.12 2220.08 C 1042.95 2260.83 1019.8 2288.842 1036.61 2338.222 C 1029.1 2344.672 1060.69 2373.4 1054.91 2381.66 C 1035.12 2409.9 1018.72 2465.26 1023.43 2501.28 C 1027.85 2535.11 1055.16 2573.24 1076.94 2592.56 C 1086.54 2601.08 1097.1 2606.41 1108.31 2610.17 C 1103.17 2627.6 1100.76 2645.42 1101.08 2660.76 C 1101.76 2692.8 1126.22 2736.29 1138.84 2752.04 C 1146.17 2761.19 1151.12 2759.75 1160.88 2764.64 C 1174.83 2771.62 1193.61 2787.14 1217.53 2789.82 C 1219.05 2789.98 1229.131 2802.887 1230.751 2803.007 C 1236.261 2816.087 1232.63 2815.7 1236.42 2821.29 C 1240.42 2827.18 1239 2825.63 1245.87 2830.74 C 1264.54 2844.61 1326.406 2898.621 1350.326 2924.231 C 1365.006 2939.951 1389.45 2945.3 1403.25 2959.79 C 1423.62 2981.19 1471.53 3006.31 1513.42 3022.74 C 1559.6 3040.86 1618.7 3054.31 1670.81 3060.52 C 1721.51 3066.56 1761.356 3098.311 1787.856 3107.331 C 1801.946 3112.121 1815.313 3109.254 1822.663 3116.594 C 1830.003 3123.944 1855.61 3097.66 1865.97 3104.59 C 1879.62 3113.7 1895.49 3127.24 1922.63 3129.77 Z M 1585.82 2575.77 C 1566.94 2573.36 1571.32 2501.86 1554.34 2475.04 C 1538.8 2450.49 1503.65 2432.09 1491.39 2418.38 C 1484.15 2410.28 1485.92 2406.14 1478.8 2399.5 C 1468.34 2389.75 1434.85 2390.27 1428.44 2368.02 C 1417.59 2330.36 1456.21 2191.87 1485.1 2153.98 C 1503.92 2129.26 1526.56 2121.4 1554.34 2122.5 C 1590.46 2123.92 1656.1 2152.54 1686.55 2185.45 C 1716.59 2217.92 1736.64 2272.92 1736.91 2317.66 C 1737.19 2363.13 1711.24 2413.56 1686.55 2456.15 C 1661.27 2499.77 1607.91 2578.58 1585.82 2575.77 Z M 2240.55 2575.77 C 2221.7 2579.59 2104.47 2550.51 2076.87 2525.41 C 2058.04 2508.29 2061.69 2490.36 2057.98 2462.45 C 2052.63 2422.25 2049.46 2347.82 2057.98 2298.77 C 2065.69 2254.39 2094.16 2198 2102.05 2179.16 C 2105.32 2171.35 2102.38 2170.95 2108.34 2166.57 C 2121.37 2156.97 2172.72 2134.54 2202.78 2135.09 C 2231.34 2135.61 2266.31 2141.27 2284.62 2166.57 C 2309.26 2200.61 2309.06 2290.22 2309.79 2349.14 C 2310.5 2405.47 2305.91 2476.22 2290.91 2512.82 C 2280.46 2538.34 2254.52 2552.23 2246.84 2563.18 C 2242.73 2569.05 2247.48 2574.36 2240.55 2575.77 Z" style="stroke: rgb(129, 151, 57); stroke-width: 0px; fill: rgb(177, 86, 211);"/>
    <ellipse style="stroke: rgb(0, 0, 0); fill: rgb(193, 71, 108); stroke-width: 0px;" transform="matrix(1, 0, 0, -1, 0, 0)" cx="1487.38" cy="-2072.9" rx="159.077" ry="108.601"/>
    <ellipse style="stroke: rgb(0, 0, 0); fill: rgb(193, 71, 108); stroke-width: 0px;" transform="matrix(1, 0, 0, -1, 0, 0)" cx="2267.48" cy="-2083.6" rx="159.077" ry="108.601"/>
    <path d="M 1725 3160 C 1521 3128 1308 3011 1186 2862 C 1147 2814 1145 2808 1160 2779 C 1180 2742 1217 2756 1283 2826 C 1501 3060 1831 3135 2131 3019 C 2237 2978 2322 2921 2410 2831 C 2569 2669 2639 2480 2627 2250 C 2620 2114 2602 2049 2535 1917 C 2470 1790 2462 1752 2484 1678 C 2520 1552 2677 1468 2817 1500 C 2886 1515 2922 1532 2975 1575 C 3033 1622 3053 1630 3107 1630 C 3168 1630 3213 1603 3240 1551 C 3294 1444 3230 1348 3042 1253 C 2926 1195 2799 1172 2686 1189 C 2541 1212 2442 1256 2334 1347 C 2280 1392 2251 1400 2230 1375 C 2191 1328 2307 1019 2419 872 C 2444 838 2485 784 2510 751 C 2559 686 2584 676 2615 710 C 2632 729 2632 733 2618 763 C 2609 780 2579 822 2550 855 C 2484 932 2416 1041 2378 1131 C 2362 1170 2350 1203 2352 1205 C 2354 1207 2391 1191 2435 1169 C 2507 1133 2516 1125 2530 1087 C 2550 1031 2624 958 2676 942 C 2804 904 2908 948 2985 1074 C 2994 1089 2999 1088 3039 1069 C 3129 1023 3231 1036 3307 1103 C 3378 1166 3407 1275 3375 1360 C 3365 1385 3354 1439 3351 1480 C 3343 1562 3318 1620 3273 1661 C 3181 1747 3039 1748 2938 1664 C 2877 1612 2824 1590 2760 1590 C 2693 1590 2634 1616 2596 1661 C 2571 1690 2568 1700 2572 1750 C 2575 1788 2585 1819 2604 1848 C 2735 2055 2760 2368 2664 2612 C 2607 2758 2485 2913 2353 3006 C 2274 3063 2160 3116 2062 3141 C 1972 3164 1810 3173 1725 3160 Z M 3300 1293 C 3300 1188 3198 1109 3103 1141 L 3068 1152 L 3132 1190 C 3167 1211 3216 1247 3240 1269 C 3290 1314 3300 1318 3300 1293 Z M 2850 1059 C 2813.92 1028.933 2770.969 1017.67 2731.368 1025.21 C 2705.114 1030.209 2680.332 1043.472 2660 1065 L 2637 1089 L 2750 1089 C 2811 1089 2864 1091 2868 1094 C 2871 1097 2876 1097 2879 1094 C 2882 1091 2869 1075 2850 1059 Z" style="stroke: rgb(0, 0, 0); stroke-width: 8.70777px;"/>
    <path d="M1053 2648 c-15 -20 -41 -96 -59 -173 -21 -92 -21 -277 0 -369 21 -88 60 -187 102 -257 63 -105 40 -195 -61 -240 -52 -24 -138 -24 -190 0 -22 10 -60 34 -83 55 -169 141 -411 31 -412 -187 0 -32 -7 -71 -15 -87 -42 -80 -26 -193 36 -263 75 -86 189 -109 290 -59 40 20 45 21 54 6 77 -126 181 -170 309 -132 52 16 126 89 146 145 14 38 23 46 95 82 44 22 81 38 83 36 7 -7 -61 -154 -103 -220 -24 -38 -67 -97 -95 -130 -69 -80 -90 -126 -90 -200 0 -141 104 -245 245 -245 59 0 135 25 149 49 4 6 35 11 69 11 34 0 78 5 98 10 50 14 123 81 144 132 24 58 23 142 -1 197 l-20 44 43 106 c24 58 46 121 49 139 3 17 10 32 14 32 4 0 11 -15 14 -32 3 -18 25 -81 49 -139 l43 -106 -20 -44 c-41 -94 -16 -212 59 -278 54 -47 94 -61 174 -61 40 0 73 -5 77 -11 14 -24 90 -49 149 -49 70 0 126 23 173 69 33 34 41 68 20 89 -18 18 -55 14 -70 -7 -37 -53 -130 -76 -186 -47 -88 46 -263 298 -332 478 -31 79 -80 241 -80 263 0 21 -39 48 -71 48 -44 0 -64 -27 -89 -123 -59 -229 -178 -451 -324 -604 -47 -50 -70 -66 -99 -72 -114 -20 -215 91 -177 195 7 19 35 62 61 94 106 127 171 240 219 385 36 110 47 177 30 197 -23 27 -57 17 -117 -36 -68 -59 -193 -122 -277 -139 -80 -16 -219 -14 -291 5 -91 23 -197 80 -261 138 -85 78 -102 132 -64 208 48 93 172 108 255 29 71 -67 188 -102 281 -82 112 23 177 72 215 160 33 77 22 148 -39 248 -107 173 -130 440 -57 649 17 50 21 74 14 87 -11 21 -62 25 -76 6z m-595 -1379 c26 -22 75 -58 110 -79 l64 -38 -35 -11 c-95 -32 -197 47 -197 152 0 24 6 22 58 -24z m582 -204 c-51 -54 -131 -56 -190 -6 l-35 29 124 1 123 0 -22 -24z m633 -428 c-20 -34 -76 -77 -101 -77 -12 0 -12 3 1 23 9 12 38 54 64 93 l48 72 3 -40 c2 -25 -4 -51 -15 -71z m457 -59 c15 -25 -6 -24 -48 2 -45 28 -72 76 -72 129 l0 44 55 -79 c30 -43 59 -87 65 -96z" style="stroke: rgb(0, 0, 0); stroke-width: 8.70777px;"/>
    <path d="M 1558.33 2537.52 C 1490.26 2515.65 1461.09 2456.61 1461.09 2345.07 C 1461.09 2222.62 1507.28 2159.19 1599.66 2159.19 C 1682.31 2159.19 1706.62 2209.5 1699.33 2356.01 C 1694.47 2465.36 1682.31 2498.16 1643.42 2520.02 C 1616.68 2535.33 1577.77 2541.89 1558.33 2537.52 Z" style="stroke: rgb(0, 0, 0); stroke-width: 113.201px; fill: rgb(255, 255, 255);"/>
    <path d="M 2095.94 2512.06 C 2079.18 2496.44 2067.21 2425 2067.21 2349.08 C 2067.21 2203.96 2093.55 2159.31 2177.38 2159.31 C 2285.14 2159.31 2342.63 2335.69 2282.76 2480.81 C 2265.99 2525.46 2242.05 2538.85 2191.74 2538.85 C 2155.84 2538.85 2112.71 2527.69 2095.94 2512.06 Z" style="stroke: rgb(0, 0, 0); stroke-width: 113.201px; fill: rgb(255, 255, 255);"/>
    <path style="fill: rgb(216, 216, 216); stroke: rgb(0, 0, 0); stroke-linecap: round; fill-opacity: 0; stroke-width: 95.7854px;" d="M 1702.26 1940.05 C 1707.41 1853.27 2021.08 1848.6 2025.42 1940.05"/>
  </g>
</svg>