<?xml version="1.0" encoding="utf-8"?>
<svg version="1.0" xmlns="http://www.w3.org/2000/svg" width="358.000000pt" height="341.000000pt" viewBox="0 0 358.000000 341.000000" preserveAspectRatio="xMidYMid meet" xmlns:bx="https://boxy-svg.com">
  <defs>
    <bx:export>
      <bx:file format="png"/>
    </bx:export>
  </defs>
  <g transform="matrix(0.120562, 0, 0, -0.120562, -42.402242, 381.870495)" style="" fill="#000000" stroke="none">
    <path d="M 1715.37 3135.93 C 1511.37 3103.93 1298.37 2986.93 1176.37 2837.93 C 1137.37 2789.93 1135.37 2783.93 1150.37 2754.93 C 1170.37 2717.93 1207.37 2731.93 1273.37 2801.93 C 1491.37 3035.93 1821.37 3110.93 2121.37 2994.93 C 2227.37 2953.93 2312.37 2896.93 2400.37 2806.93 C 2559.37 2644.93 2629.37 2455.93 2617.37 2225.93 C 2610.37 2089.93 2592.37 2024.93 2525.37 1892.93 C 2460.37 1765.93 2452.37 1727.93 2474.37 1653.93 C 2510.37 1527.93 2667.37 1443.93 2807.37 1475.93 C 2876.37 1490.93 2912.37 1507.93 2965.37 1550.93 C 3023.37 1597.93 3043.37 1605.93 3097.37 1605.93 C 3158.37 1605.93 3203.37 1578.93 3230.37 1526.93 C 3284.37 1419.93 3220.37 1323.93 3032.37 1228.93 C 2916.37 1170.93 2789.37 1147.93 2676.37 1164.93 C 2531.37 1187.93 2432.37 1231.93 2324.37 1322.93 C 2270.37 1367.93 2241.37 1375.93 2220.37 1350.93 C 2181.37 1303.93 2297.37 994.929 2409.37 847.929 C 2434.37 813.929 2475.37 759.929 2500.37 726.929 C 2549.37 661.929 2574.37 651.929 2605.37 685.929 C 2622.37 704.929 2622.37 708.929 2608.37 738.929 C 2599.37 755.929 2569.37 797.929 2540.37 830.929 C 2474.37 907.929 2406.37 1016.93 2368.37 1106.93 C 2352.37 1145.93 2340.37 1178.93 2342.37 1180.93 C 2344.37 1182.93 2381.37 1166.93 2425.37 1144.93 C 2497.37 1108.93 2506.37 1100.93 2520.37 1062.93 C 2540.37 1006.93 2614.37 933.929 2666.37 917.929 C 2794.37 879.929 2898.37 923.929 2975.37 1049.93 C 2984.37 1064.93 2989.37 1063.93 3029.37 1044.93 C 3119.37 998.929 3221.37 1011.93 3297.37 1078.93 C 3368.37 1141.93 3397.37 1250.93 3365.37 1335.93 C 3355.37 1360.93 3344.37 1414.93 3341.37 1455.93 C 3333.37 1537.93 3308.37 1595.93 3263.37 1636.93 C 3171.37 1722.93 3029.37 1723.93 2928.37 1639.93 C 2867.37 1587.93 2814.37 1565.93 2750.37 1565.93 C 2683.37 1565.93 2624.37 1591.93 2586.37 1636.93 C 2561.37 1665.93 2558.37 1675.93 2562.37 1725.93 C 2565.37 1763.93 2575.37 1794.93 2594.37 1823.93 C 2725.37 2030.93 2750.37 2343.93 2654.37 2587.93 C 2597.37 2733.93 2475.37 2888.93 2343.37 2981.93 C 2264.37 3038.93 2150.37 3091.93 2052.37 3116.93 C 1962.37 3139.93 1800.37 3148.93 1715.37 3135.93 Z M 3290.37 1268.93 C 3290.37 1163.93 3188.37 1084.93 3093.37 1116.93 L 3058.37 1127.93 L 3122.37 1165.93 C 3157.37 1186.93 3206.37 1222.93 3230.37 1244.93 C 3280.37 1289.93 3290.37 1293.93 3290.37 1268.93 Z M 2840.37 1034.93 C 2804.29 1004.86 2761.34 993.599 2721.74 1001.14 C 2695.49 1006.14 2670.7 1019.4 2650.37 1040.93 L 2627.37 1064.93 L 2740.37 1064.93 C 2801.37 1064.93 2854.37 1066.93 2858.37 1069.93 C 2861.37 1072.93 2866.37 1072.93 2869.37 1069.93 C 2872.37 1066.93 2859.37 1050.93 2840.37 1034.93 Z" style="stroke-width: 8.70777px; fill: rgb(255, 255, 255); stroke: rgb(255, 255, 255);"/>
    <path d="M 1033.74 2628.74 C 1018.74 2608.74 992.743 2532.74 974.743 2455.74 C 953.743 2363.74 953.743 2178.74 974.743 2086.74 C 995.743 1998.74 1034.74 1899.74 1076.74 1829.74 C 1139.74 1724.74 1116.74 1634.74 1015.74 1589.74 C 963.743 1565.74 877.743 1565.74 825.743 1589.74 C 803.743 1599.74 765.743 1623.74 742.743 1644.74 C 573.743 1785.74 331.743 1675.74 330.743 1457.74 C 330.743 1425.74 323.743 1386.74 315.743 1370.74 C 273.743 1290.74 289.743 1177.74 351.743 1107.74 C 426.743 1021.74 540.743 998.743 641.743 1048.74 C 681.743 1068.74 686.743 1069.74 695.743 1054.74 C 772.743 928.743 876.743 884.743 1004.74 922.743 C 1056.74 938.743 1130.74 1011.74 1150.74 1067.74 C 1164.74 1105.74 1173.74 1113.74 1245.74 1149.74 C 1289.74 1171.74 1326.74 1187.74 1328.74 1185.74 C 1335.74 1178.74 1267.74 1031.74 1225.74 965.743 C 1201.74 927.743 1158.74 868.743 1130.74 835.743 C 1061.74 755.743 1040.74 709.743 1040.74 635.743 C 1040.74 494.743 1144.74 390.743 1285.74 390.743 C 1344.74 390.743 1420.74 415.743 1434.74 439.743 C 1438.74 445.743 1469.74 450.743 1503.74 450.743 C 1537.74 450.743 1581.74 455.743 1601.74 460.743 C 1651.74 474.743 1724.74 541.743 1745.74 592.743 C 1769.74 650.743 1768.74 734.743 1744.74 789.743 L 1724.74 833.743 L 1767.74 939.743 C 1791.74 997.743 1813.74 1060.74 1816.74 1078.74 C 1819.74 1095.74 1826.74 1110.74 1830.74 1110.74 C 1834.74 1110.74 1841.74 1095.74 1844.74 1078.74 C 1847.74 1060.74 1869.74 997.743 1893.74 939.743 L 1936.74 833.743 L 1916.74 789.743 C 1875.74 695.743 1900.74 577.743 1975.74 511.743 C 2029.74 464.743 2069.74 450.743 2149.74 450.743 C 2189.74 450.743 2222.74 445.743 2226.74 439.743 C 2240.74 415.743 2316.74 390.743 2375.74 390.743 C 2445.74 390.743 2501.74 413.743 2548.74 459.743 C 2581.74 493.743 2589.74 527.743 2568.74 548.743 C 2550.74 566.743 2513.74 562.743 2498.74 541.743 C 2461.74 488.743 2368.74 465.743 2312.74 494.743 C 2224.74 540.743 2049.74 792.743 1980.74 972.743 C 1949.74 1051.74 1900.74 1213.74 1900.74 1235.74 C 1900.74 1256.74 1861.74 1283.74 1829.74 1283.74 C 1785.74 1283.74 1765.74 1256.74 1740.74 1160.74 C 1681.74 931.743 1562.74 709.743 1416.74 556.743 C 1369.74 506.743 1346.74 490.743 1317.74 484.743 C 1203.74 464.743 1102.74 575.743 1140.74 679.743 C 1147.74 698.743 1175.74 741.743 1201.74 773.743 C 1307.74 900.743 1372.74 1013.74 1420.74 1158.74 C 1456.74 1268.74 1467.74 1335.74 1450.74 1355.74 C 1427.74 1382.74 1393.74 1372.74 1333.74 1319.74 C 1265.74 1260.74 1140.74 1197.74 1056.74 1180.74 C 976.743 1164.74 837.743 1166.74 765.743 1185.74 C 674.743 1208.74 568.743 1265.74 504.743 1323.74 C 419.743 1401.74 402.743 1455.74 440.743 1531.74 C 488.743 1624.74 612.743 1639.74 695.743 1560.74 C 766.743 1493.74 883.743 1458.74 976.743 1478.74 C 1088.74 1501.74 1153.74 1550.74 1191.74 1638.74 C 1224.74 1715.74 1213.74 1786.74 1152.74 1886.74 C 1045.74 2059.74 1022.74 2326.74 1095.74 2535.74 C 1112.74 2585.74 1116.74 2609.74 1109.74 2622.74 C 1098.74 2643.74 1047.74 2647.74 1033.74 2628.74 Z M 438.743 1249.74 C 464.743 1227.74 513.743 1191.74 548.743 1170.74 L 612.743 1132.74 L 577.743 1121.74 C 482.743 1089.74 380.743 1168.74 380.743 1273.74 C 380.743 1297.74 386.743 1295.74 438.743 1249.74 Z M 1020.74 1045.74 C 969.743 991.743 889.743 989.743 830.743 1039.74 L 795.743 1068.74 L 919.743 1069.74 L 1042.74 1069.74 L 1020.74 1045.74 Z M 1653.74 617.743 C 1633.74 583.743 1577.74 540.743 1552.74 540.743 C 1540.74 540.743 1540.74 543.743 1553.74 563.743 C 1562.74 575.743 1591.74 617.743 1617.74 656.743 L 1665.74 728.743 L 1668.74 688.743 C 1670.74 663.743 1664.74 637.743 1653.74 617.743 Z M 2110.74 558.743 C 2125.74 533.743 2104.74 534.743 2062.74 560.743 C 2017.74 588.743 1990.74 636.743 1990.74 689.743 L 1990.74 733.743 L 2045.74 654.743 C 2075.74 611.743 2104.74 567.743 2110.74 558.743 Z" style="stroke-width: 8.70777px; fill: rgb(255, 255, 255); stroke: rgb(255, 255, 255);"/>
  </g>
  <g transform="matrix(0.11484, 0, 0, -0.11484, -33.060651, 372.559642)" style="" fill="#000000" stroke="none">
    <path stroke="rgb(255,0,0)" d="M 470.051 1330.07 C 495.243 1332.49 527.958 1326.49 549.962 1317.19 C 569.798 1308.8 585.943 1294.49 598.186 1279.82 C 610.046 1265.59 618.562 1246.34 622.985 1230.86 C 626.843 1217.33 627.574 1205.89 625.737 1192.21 C 623.682 1176.89 669.128 1136.71 660.263 1121.97 C 651.294 1107.04 586.631 1113.43 572.002 1103.31 C 557.625 1093.35 538.311 1086.45 522.402 1082.69 C 508.121 1079.33 496.54 1078.33 481.075 1080.11 C 462.406 1082.27 435.046 1089.41 417.691 1098.15 C 402.331 1105.89 390.68 1115.56 380.492 1127.79 C 369.781 1140.64 360.29 1157.83 355.692 1174.18 C 351.112 1190.48 350.458 1209.52 352.94 1225.7 C 355.326 1241.23 361.395 1256.38 369.476 1269.51 C 377.505 1282.56 386.535 1294.69 401.164 1304.3 C 418.449 1315.66 445.739 1327.74 470.051 1330.07 Z M 943.997 1201.22 C 970.338 1205.07 1003.81 1204.59 1029.42 1196.07 C 1054.72 1187.67 1081.41 1168.39 1096.93 1150.98 C 1110.61 1135.64 1117.76 1116.39 1121.73 1099.45 C 1125.4 1083.78 1124.31 1067.23 1121.73 1053.06 C 1119.35 1039.92 1115.5 1028.85 1107.96 1016.98 C 1099.37 1003.47 1085.08 987.205 1070.76 977.034 C 1056.94 967.238 1041.15 960.359 1023.91 956.423 C 1005.54 952.235 982.851 952.479 963.285 953.846 C 944.32 955.178 925.746 956.771 908.182 964.156 C 889.339 972.071 867.691 986.883 854.447 1001.52 C 842.169 1015.1 834.21 1031.82 829.647 1047.91 C 825.189 1063.63 824.501 1081.25 826.887 1096.86 C 829.229 1112.14 835.342 1127.54 843.423 1140.67 C 851.451 1153.71 860.481 1165.85 875.11 1175.46 C 892.395 1186.82 919.128 1197.59 943.997 1201.22 Z M 1622.78 799.518 C 1642 799.945 1667.4 796.897 1686.15 789.217 C 1704.5 781.684 1721.8 769.023 1734.38 754.429 C 1747.21 739.521 1757.48 718.457 1761.93 700.31 C 1766.12 683.226 1764.67 664.025 1761.93 648.778 C 1759.5 635.228 1755.88 624.77 1748.15 612.701 C 1739.12 598.586 1723.53 580.779 1708.2 570.181 C 1693.52 560.028 1674.17 553.297 1658.6 549.57 C 1645.01 546.313 1634.55 545.242 1620.03 546.984 C 1602.3 549.117 1575.77 556.275 1559.4 565.026 C 1544.92 572.768 1534.38 583.278 1524.95 594.659 C 1515.54 606.04 1507.54 618.893 1502.91 633.313 C 1497.97 648.734 1495.83 668.605 1497.4 684.854 C 1498.91 700.302 1504.09 715.148 1511.18 728.663 C 1518.3 742.221 1528.98 755.788 1540.11 766.019 C 1550.7 775.763 1562.49 783.652 1575.94 789.217 C 1589.92 794.999 1605.66 799.143 1622.78 799.518 Z M 2048.97 790.07 C 2069.66 792.987 2089.61 792.343 2109.58 784.924 C 2132.38 776.451 2161.06 755.387 2177.1 737.24 C 2191.45 721.017 2200.25 700.99 2204.66 683.13 C 2208.72 666.655 2207.59 649.474 2204.66 634.175 C 2201.84 619.502 2196.41 605.465 2188.12 592.935 C 2179.59 580.047 2167.88 567.63 2153.68 558.147 C 2138.44 547.985 2116.37 538.633 2098.57 534.959 C 2082.49 531.65 2067.39 532.181 2051.72 534.959 C 2035.24 537.893 2017.27 544.058 2002.12 553.001 C 1986.39 562.284 1970.72 576.216 1959.41 590.366 C 1948.34 604.211 1939.17 620.669 1934.61 636.744 C 1930.15 652.47 1929.46 670.094 1931.86 685.707 C 1934.2 700.99 1940.31 716.376 1948.39 729.516 C 1956.41 742.56 1965.45 754.69 1980.08 764.304 C 1997.37 775.659 2026.57 786.918 2048.97 790.07 Z M 2770.91 1175.41 C 2793.27 1178.74 2821.56 1174.81 2842.97 1167.28 C 2865.32 1159.44 2887.2 1171.07 2901.8 1154.41 C 2915.07 1139.28 2922.39 1121.38 2926.6 1102.87 C 2930.96 1083.69 2933.17 1062.02 2926.6 1041.04 C 2919.1 1017.05 2890.81 1022.32 2872.05 1006.13 C 2856.45 992.674 2836.57 998.952 2819.68 994.79 C 2804.53 991.054 2787.99 972.681 2772.43 974.422 C 2755.13 976.364 2748.88 987.876 2733.16 995.817 C 2718.44 1003.25 2706.76 994.877 2695.97 1007.66 C 2683.84 1022.03 2664.84 1021.76 2659.31 1041.04 C 2653.77 1060.39 2650.48 1081.87 2656.56 1102.87 C 2663.51 1126.84 2684.35 1159.71 2704.79 1176.31 C 2723.26 1191.34 2748.24 1172.03 2770.91 1175.41 Z M 3208.97 1310.09 C 3228.14 1310.37 3242.2 1322.93 3262.01 1314.6 C 3280.98 1306.63 3319.28 1335.7 3331.51 1321.02 C 3343.38 1306.8 3330.61 1243.75 3335.03 1228.29 C 3338.89 1214.75 3339.63 1203.32 3337.79 1189.63 C 3335.73 1174.31 3330.11 1155.41 3321.25 1140.66 C 3312.28 1125.74 3279.18 1120.63 3265.03 1109.62 C 3251.12 1098.8 3226.09 1116.12 3208.69 1110.53 C 3190.45 1104.66 3195.84 1066.17 3176.59 1067.23 C 3158.26 1068.23 3139.13 1073.39 3124.23 1080.11 C 3110.62 1086.26 3100.09 1093.81 3089.79 1104.6 C 3078.19 1116.73 3065.47 1133.98 3059.48 1150.97 C 3053.38 1168.28 3049.64 1187.74 3053.97 1207.67 C 3058.99 1230.77 3101.49 1241.83 3119.28 1260.36 C 3135.68 1277.43 3177.7 1292.27 3195.75 1299.4 C 3209.95 1305.01 3193.71 1309.87 3208.97 1310.09 Z" style="stroke: rgb(129, 151, 57); stroke-width: 0px; fill: rgb(91, 98, 205);"/>
    <path stroke="rgb(255,0,0)" d="M 1922.63 3129.77 C 1965.24 3133.73 2060.01 3121.32 2111.49 3098.29 C 2157.3 3077.79 2192.06 3036.42 2221.66 3007.01 C 2246.68 2982.16 2266.986 2985.334 2285.726 2968.654 C 2300.066 2955.894 2332.097 2949.759 2343.667 2939.219 C 2355.157 2928.749 2394.976 2913.694 2401.786 2905.694 C 2405.886 2900.874 2362.101 2916.196 2368.671 2913.276 C 2382.941 2906.946 2424.72 2857.54 2451.44 2846.47 C 2476.81 2835.98 2495.93 2830.09 2517.54 2799.26 C 2554.43 2746.65 2604.16 2597.83 2624.57 2509.67 C 2642.02 2434.3 2645.31 2377.73 2643.46 2301.92 C 2641.35 2215.93 2623.91 2084.69 2605.68 2018.62 C 2593.51 1974.49 2566.59 1951.5 2561.61 1924.19 C 2557.71 1902.73 2574.91 1889.91 2567.91 1867.53 C 2558.54 1837.57 2540.12 1794.11 2493.01 1756.72 C 2520.74 1698.98 2524.828 1646.687 2566.628 1624.407 C 2601.178 1605.987 2655.19 1558.24 2709.56 1570.6 C 2784.58 1587.64 2946.2 1589.75 3005.44 1608.37 C 3039.26 1619 3043.39 1639.45 3068.4 1646.14 C 3096.78 1653.74 3138.96 1655.37 3169.13 1646.14 C 3198.61 1637.13 3229.4 1624.51 3247.82 1592.63 C 3273.39 1548.36 3289.3 1429.64 3279.3 1378.58 C 3272.09 1341.83 3253.18 1317.32 3225.78 1299.89 C 3194.32 1279.88 3141.79 1289.8 3093.58 1274.71 C 3036.44 1256.83 2979.8 1208.52 2904.72 1192.87 C 2815.01 1174.17 2678.47 1160.75 2583.65 1186.58 C 2494.07 1210.97 2379.67 1304.17 2347.57 1334.51 C 2333.99 1347.35 2349.446 1302.388 2336.086 1307.528 C 2327.386 1310.868 2306.12 1364.37 2285.69 1360.72 C 2285.73 1355.07 2285.41 1349.79 2284.62 1345.01 C 2280.22 1318.63 2252.74 1307.63 2253.14 1282.06 C 2253.66 1248.87 2297.21 1176.69 2309.79 1159.3 C 2315.12 1151.94 2315.36 1158.37 2322.39 1149.85 C 2345.15 1122.26 2444.58 969.52 2479.78 898.038 C 2506.58 843.588 2508.24 787.083 2530.14 756.388 C 2546.25 733.792 2573.26 734.628 2586.8 715.471 C 2601.48 694.685 2615.37 662.867 2611.98 633.626 C 2608.03 599.57 2589.23 546.122 2552.17 523.456 C 2505.67 495.016 2382.56 493.544 2331.83 504.568 C 2296.98 512.144 2278.99 534.889 2259.44 551.782 C 2242.26 566.629 2235.69 582.216 2218.51 599.004 C 2197.55 619.485 2163.15 632.668 2139.82 665.105 C 2109.87 706.728 2097.56 779.856 2064.28 841.376 C 2026.47 911.256 1952 979.551 1919.48 1061.72 C 1897.59 1117.02 1876.15 1177.27 1868.2 1240.53 C 1841.76 1212.82 1826.27 1142.98 1811.4 1125.72 C 1802.23 1115.04 1799.47 1123.68 1789.37 1109.98 C 1761.74 1072.51 1703.05 898.682 1644.58 807.799 C 1588.02 719.894 1474.68 598.308 1446.27 571.723 C 1437.08 563.119 1436.96 567.891 1430.54 562.275 C 1420.04 553.114 1410.95 526.077 1389.62 515.061 C 1361.25 500.415 1299.82 487.945 1263.7 496.174 C 1230.4 503.767 1197.2 526.66 1178.71 555.979 C 1158.22 588.503 1145.89 650.772 1153.53 688.189 C 1157.36 706.911 1167.88 724.84 1180.65 740.532 C 1210.24 871.235 1369.33 1176.83 1384.71 1298.86 C 1299.38 1257.24 1181.83 1213.89 1095.83 1194.97 C 985.795 1170.76 871.784 1161.07 774.762 1182.38 C 682.912 1202.55 579.56 1267.47 526.085 1311.44 C 488.363 1342.45 470.565 1369.86 456.841 1405.87 C 442.682 1443.01 435.725 1493.94 444.25 1531.77 C 452.444 1568.12 473.882 1607.81 504.055 1629.35 C 536.378 1652.43 594.25 1666.12 636.256 1660.83 C 678.175 1655.56 700.929 1613.24 755.875 1597.88 C 834.288 1575.95 1011.55 1553.31 1083.23 1566.4 C 1128.78 1574.72 1145.07 1590.59 1174.52 1619.91 C 1192.97 1638.29 1212.2 1672.55 1230.54 1706.28 C 1227.22 1709.64 1223.93 1713.03 1220.69 1716.45 C 1155.04 1785.53 1080.15 1886.61 1050.71 1974.55 C 1023.85 2054.8 1027.58 2131.21 1038.12 2220.08 C 1042.95 2260.83 1019.8 2288.842 1036.61 2338.222 C 1029.1 2344.672 1060.69 2373.4 1054.91 2381.66 C 1035.12 2409.9 1018.72 2465.26 1023.43 2501.28 C 1027.85 2535.11 1055.16 2573.24 1076.94 2592.56 C 1086.54 2601.08 1097.1 2606.41 1108.31 2610.17 C 1103.17 2627.6 1100.76 2645.42 1101.08 2660.76 C 1101.76 2692.8 1126.22 2736.29 1138.84 2752.04 C 1146.17 2761.19 1151.12 2759.75 1160.88 2764.64 C 1174.83 2771.62 1193.61 2787.14 1217.53 2789.82 C 1219.05 2789.98 1229.131 2802.887 1230.751 2803.007 C 1236.261 2816.087 1232.63 2815.7 1236.42 2821.29 C 1240.42 2827.18 1239 2825.63 1245.87 2830.74 C 1264.54 2844.61 1326.406 2898.621 1350.326 2924.231 C 1365.006 2939.951 1389.45 2945.3 1403.25 2959.79 C 1423.62 2981.19 1471.53 3006.31 1513.42 3022.74 C 1559.6 3040.86 1618.7 3054.31 1670.81 3060.52 C 1721.51 3066.56 1761.356 3098.311 1787.856 3107.331 C 1801.946 3112.121 1815.313 3109.254 1822.663 3116.594 C 1830.003 3123.944 1855.61 3097.66 1865.97 3104.59 C 1879.62 3113.7 1895.49 3127.24 1922.63 3129.77 Z M 1585.82 2575.77 C 1566.94 2573.36 1571.32 2501.86 1554.34 2475.04 C 1538.8 2450.49 1503.65 2432.09 1491.39 2418.38 C 1484.15 2410.28 1485.92 2406.14 1478.8 2399.5 C 1468.34 2389.75 1434.85 2390.27 1428.44 2368.02 C 1417.59 2330.36 1456.21 2191.87 1485.1 2153.98 C 1503.92 2129.26 1526.56 2121.4 1554.34 2122.5 C 1590.46 2123.92 1656.1 2152.54 1686.55 2185.45 C 1716.59 2217.92 1736.64 2272.92 1736.91 2317.66 C 1737.19 2363.13 1711.24 2413.56 1686.55 2456.15 C 1661.27 2499.77 1607.91 2578.58 1585.82 2575.77 Z M 2240.55 2575.77 C 2221.7 2579.59 2104.47 2550.51 2076.87 2525.41 C 2058.04 2508.29 2061.69 2490.36 2057.98 2462.45 C 2052.63 2422.25 2049.46 2347.82 2057.98 2298.77 C 2065.69 2254.39 2094.16 2198 2102.05 2179.16 C 2105.32 2171.35 2102.38 2170.95 2108.34 2166.57 C 2121.37 2156.97 2172.72 2134.54 2202.78 2135.09 C 2231.34 2135.61 2266.31 2141.27 2284.62 2166.57 C 2309.26 2200.61 2309.06 2290.22 2309.79 2349.14 C 2310.5 2405.47 2305.91 2476.22 2290.91 2512.82 C 2280.46 2538.34 2254.52 2552.23 2246.84 2563.18 C 2242.73 2569.05 2247.48 2574.36 2240.55 2575.77 Z" style="stroke: rgb(129, 151, 57); stroke-width: 0px; fill: rgb(177, 86, 211);"/>
    <ellipse style="stroke: rgb(0, 0, 0); fill: rgb(193, 71, 108); stroke-width: 0px;" transform="matrix(1, 0, 0, -1, 0, 0)" cx="1487.38" cy="-2072.9" rx="159.077" ry="108.601"/>
    <ellipse style="stroke: rgb(0, 0, 0); fill: rgb(193, 71, 108); stroke-width: 0px;" transform="matrix(1, 0, 0, -1, 0, 0)" cx="2267.48" cy="-2083.6" rx="159.077" ry="108.601"/>
    <path d="M 1725 3160 C 1521 3128 1308 3011 1186 2862 C 1147 2814 1145 2808 1160 2779 C 1180 2742 1217 2756 1283 2826 C 1501 3060 1831 3135 2131 3019 C 2237 2978 2322 2921 2410 2831 C 2569 2669 2639 2480 2627 2250 C 2620 2114 2602 2049 2535 1917 C 2470 1790 2462 1752 2484 1678 C 2520 1552 2677 1468 2817 1500 C 2886 1515 2922 1532 2975 1575 C 3033 1622 3053 1630 3107 1630 C 3168 1630 3213 1603 3240 1551 C 3294 1444 3230 1348 3042 1253 C 2926 1195 2799 1172 2686 1189 C 2541 1212 2442 1256 2334 1347 C 2280 1392 2251 1400 2230 1375 C 2191 1328 2307 1019 2419 872 C 2444 838 2485 784 2510 751 C 2559 686 2584 676 2615 710 C 2632 729 2632 733 2618 763 C 2609 780 2579 822 2550 855 C 2484 932 2416 1041 2378 1131 C 2362 1170 2350 1203 2352 1205 C 2354 1207 2391 1191 2435 1169 C 2507 1133 2516 1125 2530 1087 C 2550 1031 2624 958 2676 942 C 2804 904 2908 948 2985 1074 C 2994 1089 2999 1088 3039 1069 C 3129 1023 3231 1036 3307 1103 C 3378 1166 3407 1275 3375 1360 C 3365 1385 3354 1439 3351 1480 C 3343 1562 3318 1620 3273 1661 C 3181 1747 3039 1748 2938 1664 C 2877 1612 2824 1590 2760 1590 C 2693 1590 2634 1616 2596 1661 C 2571 1690 2568 1700 2572 1750 C 2575 1788 2585 1819 2604 1848 C 2735 2055 2760 2368 2664 2612 C 2607 2758 2485 2913 2353 3006 C 2274 3063 2160 3116 2062 3141 C 1972 3164 1810 3173 1725 3160 Z M 3300 1293 C 3300 1188 3198 1109 3103 1141 L 3068 1152 L 3132 1190 C 3167 1211 3216 1247 3240 1269 C 3290 1314 3300 1318 3300 1293 Z M 2850 1059 C 2813.92 1028.933 2770.969 1017.67 2731.368 1025.21 C 2705.114 1030.209 2680.332 1043.472 2660 1065 L 2637 1089 L 2750 1089 C 2811 1089 2864 1091 2868 1094 C 2871 1097 2876 1097 2879 1094 C 2882 1091 2869 1075 2850 1059 Z" style="stroke: rgb(0, 0, 0); stroke-width: 8.70777px;"/>
    <path d="M1053 2648 c-15 -20 -41 -96 -59 -173 -21 -92 -21 -277 0 -369 21 -88 60 -187 102 -257 63 -105 40 -195 -61 -240 -52 -24 -138 -24 -190 0 -22 10 -60 34 -83 55 -169 141 -411 31 -412 -187 0 -32 -7 -71 -15 -87 -42 -80 -26 -193 36 -263 75 -86 189 -109 290 -59 40 20 45 21 54 6 77 -126 181 -170 309 -132 52 16 126 89 146 145 14 38 23 46 95 82 44 22 81 38 83 36 7 -7 -61 -154 -103 -220 -24 -38 -67 -97 -95 -130 -69 -80 -90 -126 -90 -200 0 -141 104 -245 245 -245 59 0 135 25 149 49 4 6 35 11 69 11 34 0 78 5 98 10 50 14 123 81 144 132 24 58 23 142 -1 197 l-20 44 43 106 c24 58 46 121 49 139 3 17 10 32 14 32 4 0 11 -15 14 -32 3 -18 25 -81 49 -139 l43 -106 -20 -44 c-41 -94 -16 -212 59 -278 54 -47 94 -61 174 -61 40 0 73 -5 77 -11 14 -24 90 -49 149 -49 70 0 126 23 173 69 33 34 41 68 20 89 -18 18 -55 14 -70 -7 -37 -53 -130 -76 -186 -47 -88 46 -263 298 -332 478 -31 79 -80 241 -80 263 0 21 -39 48 -71 48 -44 0 -64 -27 -89 -123 -59 -229 -178 -451 -324 -604 -47 -50 -70 -66 -99 -72 -114 -20 -215 91 -177 195 7 19 35 62 61 94 106 127 171 240 219 385 36 110 47 177 30 197 -23 27 -57 17 -117 -36 -68 -59 -193 -122 -277 -139 -80 -16 -219 -14 -291 5 -91 23 -197 80 -261 138 -85 78 -102 132 -64 208 48 93 172 108 255 29 71 -67 188 -102 281 -82 112 23 177 72 215 160 33 77 22 148 -39 248 -107 173 -130 440 -57 649 17 50 21 74 14 87 -11 21 -62 25 -76 6z m-595 -1379 c26 -22 75 -58 110 -79 l64 -38 -35 -11 c-95 -32 -197 47 -197 152 0 24 6 22 58 -24z m582 -204 c-51 -54 -131 -56 -190 -6 l-35 29 124 1 123 0 -22 -24z m633 -428 c-20 -34 -76 -77 -101 -77 -12 0 -12 3 1 23 9 12 38 54 64 93 l48 72 3 -40 c2 -25 -4 -51 -15 -71z m457 -59 c15 -25 -6 -24 -48 2 -45 28 -72 76 -72 129 l0 44 55 -79 c30 -43 59 -87 65 -96z" style="stroke: rgb(0, 0, 0); stroke-width: 8.70777px;"/>
    <path d="M 1558.33 2537.52 C 1490.26 2515.65 1461.09 2456.61 1461.09 2345.07 C 1461.09 2222.62 1507.28 2159.19 1599.66 2159.19 C 1682.31 2159.19 1706.62 2209.5 1699.33 2356.01 C 1694.47 2465.36 1682.31 2498.16 1643.42 2520.02 C 1616.68 2535.33 1577.77 2541.89 1558.33 2537.52 Z" style="stroke: rgb(0, 0, 0); stroke-width: 113.201px; fill: rgb(255, 255, 255);"/>
    <path d="M 2095.94 2512.06 C 2079.18 2496.44 2067.21 2425 2067.21 2349.08 C 2067.21 2203.96 2093.55 2159.31 2177.38 2159.31 C 2285.14 2159.31 2342.63 2335.69 2282.76 2480.81 C 2265.99 2525.46 2242.05 2538.85 2191.74 2538.85 C 2155.84 2538.85 2112.71 2527.69 2095.94 2512.06 Z" style="stroke: rgb(0, 0, 0); stroke-width: 113.201px; fill: rgb(255, 255, 255);"/>
    <path style="fill: rgb(216, 216, 216); stroke: rgb(0, 0, 0); stroke-linecap: round; fill-opacity: 0; stroke-width: 95.7854px;" d="M 1702.26 1940.05 C 1707.41 1853.27 2021.08 1848.6 2025.42 1940.05"/>
  </g>
</svg>